{"title":"Aiba Awards (2015) 720p HDTV - IcTv 7th Anniversary Exclusive -=","uid":12164676,"size":3602242544,"categoryP":"video","categoryS":"movies","magnet":"?xt=urn:btih:e4914a20ce578569bd9f4562f9d8cc1f87f4fe0e&amp;dn=Aiba+Awards+%282015%29+720p+HDTV+-+IcTv+7th+Anniversary+Exclusive+-%3D&amp;tr=udp%3A%2F%2Ftracker.openbittorrent.com%3A80&amp;tr=udp%3A%2F%2Fopen.demonii.com%3A1337&amp;tr=udp%3A%2F%2Ftracker.coppersurfer.tk%3A6969&amp;tr=udp%3A%2F%2Fexodus.desync.com%3A6969","seeders":8,"leechers":14,"uploader":"SS132203","files":3,"time":1437957920,"description":"Aiba Awards (2015) 720p HDTV - IcTv 7th Anniversary Exclusive -={SPARROW}=-\n &lt;a href=&quot;\nhttp://imgsparrow.co/image/cW&quot; rel=&quot;nofollow&quot; target=&quot;_NEW&quot;&gt;\nhttp://imgsparrow.co/image/cW&lt;/a&gt;\n &lt;a href=&quot;\nhttp://imgsparrow.co/image/CY&quot; rel=&quot;nofollow&quot; target=&quot;_NEW&quot;&gt;\nhttp://imgsparrow.co/image/CY&lt;/a&gt;\n &lt;a href=&quot;\nhttp://imgsparrow.co/image/9b&quot; rel=&quot;nofollow&quot; target=&quot;_NEW&quot;&gt;\nhttp://imgsparrow.co/image/9b&lt;/a&gt;\n\nInfo : - \n\nFormat                                   : MPEG-4\nFormat profile                           : Base Media / Version 2\nCodec ID                                 : mp42\nFile size                                : 3.32 GiB\nDuration                                 : 1h 54mn\nOverall bit rate                         : 4 139 Kbps\nCodirector                               : codirector\nProduction studio                        : studio\nContentType                              : Unknown Type\nEncoded date                             : UTC 2015-07-27 04:29:54\nTagged date                              : UTC 2015-07-27 04:29:54\n\nVideo\nID                                       : 1\nFormat                                   : AVC\nFormat/Info                              : Advanced Video Codec\nFormat profile                           : Baseline@L3\nFormat settings, CABAC                   : No\nFormat settings, ReFrames                : 1 frame\nMuxing mode                              : Container profile=&lt;a class=&quot;__cf_email__&quot; href=&quot;/cdn-cgi/l/email-protection&quot; data-cfemail=&quot;83c1e2f0e6efeaede6c3b7adb2&quot;&gt;[email&amp;#160;protected]&lt;/a&gt;&lt;script data-cfhash='f9e31' type=&quot;text/javascript&quot;&gt;\n/* &lt;![CDATA[ */!function(){try{var t=&quot;currentScript&quot;in document?document.currentScript:function(){for(var t=document.getElementsByTagName(&quot;script&quot;),e=t.length;e--;)if(t[e].getAttribute(&quot;data-cfhash&quot;))return t[e]}();if(t&amp;&amp;t.previousSibling){var e,r,n,i,c=t.previousSibling,a=c.getAttribute(&quot;data-cfemail&quot;);if(a){for(e=&quot;&quot;,r=parseInt(a.substr(0,2),16),n=2;a.length-n;n+=2)i=parseInt(a.substr(n,2),16)^r,e+=String.fromCharCode(i);e=document.createTextNode(e),c.parentNode.replaceChild(e,c)}t.parentNode.removeChild(t);}}catch(u){}}()/* ]]&gt; */&lt;/script&gt;\nCodec ID                                 : avc1\nCodec ID/Info                            : Advanced Video Coding\nDuration                                 : 1h 54mn\nBit rate                                 : 4 004 Kbps\nWidth                                    : 1 280 pixels\nHeight                                   : 720 pixels\nDisplay aspect ratio                     : 16:9\nFrame rate mode                          : Constant\nFrame rate                               : 25.000 fps\nColor space                              : YUV\nChroma subsampling                       : 4:2:0\nBit depth                                : 8 bits\nScan type                                : Progressive\nBits/(Pixel*Frame)                       : 0.174\nStream size                              : 3.22 GiB (97%)\nLanguage                                 : English\n\nAudio\nID                                       : 2\nFormat                                   : AAC\nFormat/Info                              : Advanced Audio Codec\nFormat profile                           : LC\nCodec ID                                 : 40\nDuration                                 : 1h 54mn\nBit rate mode                            : Constant\nBit rate                                 : 132 Kbps\nChannel(s)                               : 2 channels\nChannel positions                        : Front: L R\nSampling rate                            : 48.0 KHz\nCompression mode                         : Lossy\nStream size                              : 107 MiB (3%)\nTitle                                    : Stereo\nLanguage                                 : English\n\nScreens : - \n &lt;a href=&quot;\nhttp://imgsparrow.co/image/Cc&quot; rel=&quot;nofollow&quot; target=&quot;_NEW&quot;&gt;\nhttp://imgsparrow.co/image/Cc&lt;/a&gt; &lt;a href=&quot;\nhttp://imgsparrow.co/image/Cd&quot; rel=&quot;nofollow&quot; target=&quot;_NEW&quot;&gt;\nhttp://imgsparrow.co/image/Cd&lt;/a&gt; &lt;a href=&quot;\nhttp://imgsparrow.co/image/Co&quot; rel=&quot;nofollow&quot; target=&quot;_NEW&quot;&gt;\nhttp://imgsparrow.co/image/Co&lt;/a&gt; &lt;a href=&quot;\nhttp://imgsparrow.co/image/CM&quot; rel=&quot;nofollow&quot; target=&quot;_NEW&quot;&gt;\nhttp://imgsparrow.co/image/CM&lt;/a&gt; &lt;a href=&quot;\nhttp://imgsparrow.co/image/Cm&quot; rel=&quot;nofollow&quot; target=&quot;_NEW&quot;&gt;\nhttp://imgsparrow.co/image/Cm&lt;/a&gt; &lt;a href=&quot;\nhttp://imgsparrow.co/image/CF&quot; rel=&quot;nofollow&quot; target=&quot;_NEW&quot;&gt;\nhttp://imgsparrow.co/image/CF&lt;/a&gt; &lt;a href=&quot;\nhttp://imgsparrow.co/image/CO&quot; rel=&quot;nofollow&quot; target=&quot;_NEW&quot;&gt;\nhttp://imgsparrow.co/image/CO&lt;/a&gt; &lt;a href=&quot;\nhttp://imgsparrow.co/image/Cp&quot; rel=&quot;nofollow&quot; target=&quot;_NEW&quot;&gt;\nhttp://imgsparrow.co/image/Cp&lt;/a&gt; &lt;a href=&quot;\nhttp://imgsparrow.co/image/C0&quot; rel=&quot;nofollow&quot; target=&quot;_NEW&quot;&gt;\nhttp://imgsparrow.co/image/C0&lt;/a&gt; &lt;a href=&quot;\nhttp://imgsparrow.co/image/CB&quot; rel=&quot;nofollow&quot; target=&quot;_NEW&quot;&gt;\nhttp://imgsparrow.co/image/CB&lt;/a&gt;\n &lt;a href=&quot;\nhttp://imgsparrow.co/image/N2&quot; rel=&quot;nofollow&quot; target=&quot;_NEW&quot;&gt;\nhttp://imgsparrow.co/image/N2&lt;/a&gt;","torrent":{"xt":"urn:btih:e4914a20ce578569bd9f4562f9d8cc1f87f4fe0e","amp;dn":"Aiba+Awards+%282015%29+720p+HDTV+-+IcTv+7th+Anniversary+Exclusive+-%3D","amp;tr":["udp%3A%2F%2Ftracker.openbittorrent.com%3A80","udp%3A%2F%2Fopen.demonii.com%3A1337","udp%3A%2F%2Ftracker.coppersurfer.tk%3A6969","udp%3A%2F%2Fexodus.desync.com%3A6969"],"infoHash":"e4914a20ce578569bd9f4562f9d8cc1f87f4fe0e","infoHashBuffer":{"type":"Buffer","data":[228,145,74,32,206,87,133,105,189,159,69,98,249,216,204,31,135,244,254,14]},"announce":[],"urlList":[]}}